<?xml version="1.0" encoding="UTF-8" standalone="no"?>
<svg
   xmlns:dc="http://purl.org/dc/elements/1.1/"
   xmlns:cc="http://creativecommons.org/ns#"
   xmlns:rdf="http://www.w3.org/1999/02/22-rdf-syntax-ns#"
   xmlns:svg="http://www.w3.org/2000/svg"
   xmlns="http://www.w3.org/2000/svg"
   xmlns:sodipodi="http://sodipodi.sourceforge.net/DTD/sodipodi-0.dtd"
   xmlns:inkscape="http://www.inkscape.org/namespaces/inkscape"
   width="642.51971"
   height="94.48819"
   viewBox="0 0 170 25"
   version="1.1"
   id="svg131407"
   inkscape:version="1.0.1 (3bc2e813f5, 2020-09-07)"
   sodipodi:docname="coolmusic.svg">
  <metadata
     id="metadata16">
    <rdf:RDF>
      <cc:Work
         rdf:about="">
        <dc:format>image/svg+xml</dc:format>
        <dc:type
           rdf:resource="http://purl.org/dc/dcmitype/StillImage" />
        <dc:title></dc:title>
      </cc:Work>
    </rdf:RDF>
  </metadata>
  <sodipodi:namedview
     id="namedview131409"
     pagecolor="#ffffff"
     bordercolor="#666666"
     borderopacity="1.0"
     inkscape:pageshadow="2"
     inkscape:pageopacity="0.0"
     inkscape:pagecheckerboard="true"
     inkscape:document-units="mm"
     showgrid="false"
     inkscape:zoom="1.5001964"
     inkscape:cx="419.22457"
     inkscape:cy="156.87797"
     inkscape:window-width="2560"
     inkscape:window-height="1027"
     inkscape:window-x="-8"
     inkscape:window-y="-8"
     inkscape:window-maximized="1"
     inkscape:current-layer="layer1"
     units="px"
     inkscape:document-rotation="0" />
  <defs
     id="defs131404">
    <rect
       x="5.2909739"
       y="2.1163896"
       width="192.4984"
       height="36.098353"
       id="rect867" />
    <rect
       x="83.950119"
       y="62.08076"
       width="144.97268"
       height="87.124704"
       id="rect861" />
    <rect
       x="-0.35273159"
       y="1.4109264"
       width="172.13302"
       height="23.280285"
       id="rect855" />
    <rect
       x="1.0581948"
       y="3.8800475"
       width="137.91805"
       height="17.283848"
       id="rect849" />
    <rect
       x="41.269596"
       y="11.287411"
       width="107.92101"
       height="14.288355"
       id="rect843" />
    <rect
       x="98.823532"
       y="144.70589"
       width="580"
       height="241.17647"
       id="rect2642" />
    <clipPath
       clipPathUnits="userSpaceOnUse"
       id="clipPath126994">
      <path
         d="m 670.37009,168.82703 -30.68671,-21.07751 -15.58154,28.26226 27.13964,18.60765 c -2.59632,0.53084 -5.10916,2.15072 -6.84448,4.67929 -3.25163,4.74411 -2.53405,10.88859 1.60241,13.72507 4.13686,2.83594 10.12666,1.29015 13.37941,-3.45318 2.6044,-3.79918 2.66015,-8.49468 0.45442,-11.67232 0.0602,-0.14249 -0.26071,-0.51182 -0.87255,-1.05389 -0.35797,-0.36456 -0.75218,-0.69914 -1.18502,-0.99776 -0.0338,-0.0227 -0.0696,-0.0437 -0.10419,-0.0669 -6.74005,-5.30386 -26.88599,-18.4382 -26.88599,-18.4382 l 12.37323,-23.03058 20.67656,13.77339 c -2.39295,0.63837 -4.67012,2.20132 -6.27871,4.54585 -3.25088,4.743 -2.53385,10.8871 1.60224,13.72416 4.1372,2.83541 10.12702,1.28958 13.37848,-3.45302 3.25263,-4.74424 2.53499,-10.88635 -1.60203,-13.72321 -0.18547,-0.12581 -0.37498,-0.23961 -0.56514,-0.35121"
         style="display:none;fill:#ffffff;fill-opacity:1;fill-rule:nonzero;stroke:none;stroke-width:0.668977"
         id="path126996" />
      <path
         id="lpe_path-effect126998"
         style="fill:#ffffff;fill-opacity:1;fill-rule:nonzero;stroke:none;stroke-width:0.668977"
         class="powerclip"
         d="m 588.28753,126.18288 h 98.13082 v 108.22888 h -98.13082 z m 82.08256,42.64415 -30.68671,-21.07751 -15.58154,28.26226 27.13964,18.60765 c -2.59632,0.53084 -5.10916,2.15072 -6.84448,4.67929 -3.25163,4.74411 -2.53405,10.88859 1.60241,13.72507 4.13686,2.83594 10.12666,1.29015 13.37941,-3.45318 2.6044,-3.79918 2.66015,-8.49468 0.45442,-11.67232 0.0602,-0.14249 -0.26071,-0.51182 -0.87255,-1.05389 -0.35797,-0.36456 -0.75218,-0.69914 -1.18502,-0.99776 -0.0338,-0.0227 -0.0696,-0.0437 -0.10419,-0.0669 -6.74005,-5.30386 -26.88599,-18.4382 -26.88599,-18.4382 l 12.37323,-23.03058 20.67656,13.77339 c -2.39295,0.63837 -4.67012,2.20132 -6.27871,4.54585 -3.25088,4.743 -2.53385,10.8871 1.60224,13.72416 4.1372,2.83541 10.12702,1.28958 13.37848,-3.45302 3.25263,-4.74424 2.53499,-10.88635 -1.60203,-13.72321 -0.18547,-0.12581 -0.37498,-0.23961 -0.56514,-0.35121" />
    </clipPath>
    <inkscape:path-effect
       effect="powerclip"
       id="path-effect126998"
       is_visible="true"
       lpeversion="1"
       inverse="true"
       flatten="false"
       hide_clip="false"
       message="Usar a regra de preenchimento par ou ímpar na caixa de diálogo &lt;b&gt;preenchimento e contorno&lt;/b&gt; se nenhum resultado nivelar após converter o clipe em caminhos." />
  </defs>
  <g
     inkscape:label="Camada 1"
     inkscape:groupmode="layer"
     id="layer1">
    <g
       id="g131704"
       transform="matrix(0.80382296,0,0,0.80382296,-11.800847,-48.368656)">
      <text
         xml:space="preserve"
         id="text2640"
         style="font-style:normal;font-variant:normal;font-weight:normal;font-stretch:normal;font-size:133.333px;line-height:1.25;font-family:Coolvetica;-inkscape-font-specification:Coolvetica;white-space:pre;shape-inside:url(#rect2642);fill:#ffffff;fill-opacity:1;stroke:none;"
         transform="matrix(0.26458333,0,0,0.26458333,5.5644449,18.059774)"><tspan
           style="visibility:hidden"
           x="98.824219"
           y="503.85126"><tspan
             dx="0 73.307106 81.57531 81.575317 37.044159 129.88248 84.505005 69.465973 37.044189">coolmusic</tspan></tspan></text>
      <path
         sodipodi:type="star"
         style="fill:#ff0000"
         id="path33440"
         inkscape:flatsided="false"
         sodipodi:sides="3"
         sodipodi:cx="650"
         sodipodi:cy="178.5294"
         sodipodi:r1="56.822586"
         sodipodi:r2="28.411293"
         sodipodi:arg1="1.1094635"
         sodipodi:arg2="2.1566611"
         inkscape:rounded="0"
         inkscape:randomized="0"
         inkscape:transform-center-x="-11.186632"
         inkscape:transform-center-y="0.12082608"
         transform="matrix(0.11721805,0.17460908,-0.17460908,0.11721805,139.99532,-58.264714)"
         clip-path="url(#clipPath126994)"
         inkscape:path-effect="#path-effect126998"
         d="m 675.29412,229.41176 -41.0033,-27.20909 -41.00329,-27.20909 44.06541,-21.90535 44.06541,-21.90535 -3.06212,49.11444 z" />
    </g>
    <text
       xml:space="preserve"
       id="text847"
       style="font-size:26.4583px;line-height:1.25;font-family:ISOCP2;-inkscape-font-specification:ISOCP2;white-space:pre;shape-inside:url(#rect849);"
       transform="translate(26.102138,3.5273159)"><tspan
         style="visibility:hidden"
         x="1.0585938"
         y="44.151628"><tspan
           dx="0 9.4102783 10.906311 10.906311 5.4415283 16.541626 11.301636 9.4490356 5.4415283"
           style="font-style:normal;font-variant:normal;font-weight:bold;font-stretch:normal;font-size:15.875px;font-family:sans-serif;-inkscape-font-specification:'sans-serif Bold'">coolmusic</tspan></tspan></text>
    <text
       xml:space="preserve"
       id="text853"
       style="font-size:21.1667px;line-height:1.25;font-family:ISOCP2;-inkscape-font-specification:ISOCP2;white-space:pre;shape-inside:url(#rect855);"><tspan
         style="visibility:hidden"
         x="-0.35351562"
         y="43.081512"><tspan
           dx="0 9.1467428 10.666032 10.666035 6.0978279 13.714947 10.666035 10.666031 4.5682068"
           style="shape-inside:url(#rect855)">coolmusic</tspan></tspan></text>
    <text
       xml:space="preserve"
       id="text859"
       style="line-height:1.25;font-family:ISOCP2;font-size:10.58333333px;-inkscape-font-specification:ISOCP2;white-space:pre;shape-inside:url(#rect861);" />
    <text
       xml:space="preserve"
       id="text865"
       style="font-size:21.1667px;line-height:1.25;font-family:ISOCP2;-inkscape-font-specification:ISOCP2;white-space:pre;shape-inside:url(#rect867);fill:#ffffff;"
       transform="translate(20.458433,-1.2345606)"><tspan
         x="5.2910156"
         y="21.183186"><tspan
           style="font-style:normal;font-variant:normal;font-weight:bold;font-stretch:normal;font-size:21.1667px;font-family:Arial;-inkscape-font-specification:'Arial Bold';fill:#ffffff">coolmusic</tspan></tspan></text>
  </g>
</svg>
